<svg width="154" height="30" viewBox="0 0 154 30" fill="none" xmlns="http://www.w3.org/2000/svg">
<rect width="154" height="30" rx="8" fill="black"/>
<g clip-path="url(#clip0_3376_25290)">
<path d="M24 15C24 8.37258 18.6274 3 12 3C5.37258 3 0 8.37258 0 15C0 21.6274 5.37258 27 12 27C18.6274 27 24 21.6274 24 15Z" fill="white"/>
<path d="M9.19102 17.2307L12.5698 8.05757C12.6124 7.942 12.7625 7.9131 12.845 8.00464L18.9422 14.7763C19.0246 14.8679 18.9802 15.0142 18.8608 15.0445L9.38482 17.4458C9.25718 17.4782 9.14553 17.3542 9.19102 17.2307Z" fill="black"/>
<path fill-rule="evenodd" clip-rule="evenodd" d="M12.8247 8.02307C12.756 7.94679 12.6308 7.97086 12.5953 8.06719L9.21659 17.2403C9.21658 17.2403 9.21658 17.2403 9.21658 17.2403C9.17868 17.3432 9.27172 17.4465 9.37809 17.4196L18.8541 15.0182C18.9536 14.993 18.9906 14.871 18.9219 14.7948L18.9422 14.7765L18.9219 14.7948L12.8247 8.02307ZM12.8652 7.98657L12.845 8.00477L12.8652 7.98657L18.9625 14.7583C19.0586 14.865 19.0068 15.0358 18.8675 15.0711L9.39149 17.4725C9.24259 17.5102 9.11232 17.3656 9.1654 17.2214L9.1654 17.2214L12.5442 8.04833L12.5442 8.04832C12.5939 7.9135 12.769 7.87978 12.8652 7.98657Z" fill="white"/>
<path d="M14.9208 12.2665C16.6745 14.2142 18.5317 15.4009 19.069 14.9171C19.6063 14.4333 18.6202 12.4623 16.8665 10.5146C15.1128 8.56693 13.2556 7.38021 12.7183 7.86399C12.181 8.34777 13.1671 10.3188 14.9208 12.2665Z" fill="#333333"/>
</g>
<path d="M36.401 21.915C34.973 21.915 33.818 21.593 32.936 20.949C32.061 20.298 31.529 19.381 31.34 18.198L34.259 17.757C34.378 18.289 34.6405 18.7055 35.0465 19.0065C35.4595 19.3075 35.981 19.458 36.611 19.458C37.129 19.458 37.528 19.36 37.808 19.164C38.088 18.961 38.228 18.681 38.228 18.324C38.228 18.1 38.172 17.9215 38.06 17.7885C37.948 17.6485 37.696 17.512 37.304 17.379C36.919 17.246 36.317 17.071 35.498 16.854C34.574 16.616 33.8355 16.35 33.2825 16.056C32.7295 15.762 32.3305 15.412 32.0855 15.006C31.8405 14.593 31.718 14.096 31.718 13.515C31.718 12.787 31.9035 12.157 32.2745 11.625C32.6455 11.086 33.167 10.673 33.839 10.386C34.518 10.092 35.316 9.94504 36.233 9.94504C37.122 9.94504 37.9095 10.0815 38.5955 10.3545C39.2815 10.6275 39.8345 11.016 40.2545 11.52C40.6815 12.024 40.944 12.619 41.042 13.305L38.123 13.83C38.074 13.41 37.892 13.0775 37.577 12.8325C37.262 12.5875 36.835 12.444 36.296 12.402C35.771 12.367 35.3475 12.437 35.0255 12.612C34.7105 12.787 34.553 13.039 34.553 13.368C34.553 13.564 34.6195 13.7285 34.7525 13.8615C34.8925 13.9945 35.176 14.131 35.603 14.271C36.037 14.411 36.695 14.593 37.577 14.817C38.438 15.041 39.1275 15.3035 39.6455 15.6045C40.1705 15.8985 40.552 16.2555 40.79 16.6755C41.028 17.0885 41.147 17.589 41.147 18.177C41.147 19.339 40.727 20.2525 39.887 20.9175C39.047 21.5825 37.885 21.915 36.401 21.915Z" fill="white"/>
<path d="M48.7253 21.915C47.5633 21.915 46.5378 21.6665 45.6488 21.1695C44.7668 20.6655 44.0738 19.976 43.5698 19.101C43.0728 18.219 42.8243 17.211 42.8243 16.077C42.8243 14.838 43.0693 13.76 43.5593 12.843C44.0493 11.926 44.7248 11.2155 45.5858 10.7115C46.4468 10.2005 47.4373 9.94504 48.5573 9.94504C49.7473 9.94504 50.7588 10.225 51.5918 10.785C52.4248 11.345 53.0408 12.1325 53.4398 13.1475C53.8388 14.1625 53.9788 15.356 53.8598 16.728H51.0353V15.678C51.0353 14.523 50.8498 13.6935 50.4788 13.1895C50.1148 12.6785 49.5163 12.423 48.6833 12.423C47.7103 12.423 46.9928 12.7205 46.5308 13.3155C46.0758 13.9035 45.8483 14.775 45.8483 15.93C45.8483 16.987 46.0758 17.806 46.5308 18.387C46.9928 18.961 47.6683 19.248 48.5573 19.248C49.1173 19.248 49.5968 19.1255 49.9958 18.8805C50.3948 18.6355 50.6993 18.282 50.9093 17.82L53.7653 18.639C53.3383 19.675 52.6628 20.48 51.7388 21.054C50.8218 21.628 49.8173 21.915 48.7253 21.915ZM44.9663 16.728V14.607H52.4843V16.728H44.9663Z" fill="white"/>
<path d="M63.6511 21.6V16.245C63.6511 15.986 63.6371 15.657 63.6091 15.258C63.5811 14.852 63.4936 14.446 63.3466 14.04C63.1996 13.634 62.9581 13.2945 62.6221 13.0215C62.2931 12.7485 61.8241 12.612 61.2151 12.612C60.9701 12.612 60.7076 12.6505 60.4276 12.7275C60.1476 12.8045 59.8851 12.955 59.6401 13.179C59.3951 13.396 59.1921 13.718 59.0311 14.145C58.8771 14.572 58.8001 15.139 58.8001 15.846L57.1621 15.069C57.1621 14.173 57.3441 13.333 57.7081 12.549C58.0721 11.765 58.6181 11.1315 59.3461 10.6485C60.0811 10.1655 61.0051 9.92404 62.1181 9.92404C63.0071 9.92404 63.7316 10.0745 64.2916 10.3755C64.8516 10.6765 65.2856 11.058 65.5936 11.52C65.9086 11.982 66.1326 12.465 66.2656 12.969C66.3986 13.466 66.4791 13.921 66.5071 14.334C66.5351 14.747 66.5491 15.048 66.5491 15.237V21.6H63.6511ZM55.9021 21.6V10.26H58.4431V14.019H58.8001V21.6H55.9021Z" fill="white"/>
<path d="M73.6676 21.915C72.6246 21.915 71.7111 21.6525 70.9271 21.1275C70.1431 20.6025 69.5306 19.8885 69.0896 18.9855C68.6556 18.0825 68.4386 17.064 68.4386 15.93C68.4386 14.775 68.6591 13.7495 69.1001 12.8535C69.5481 11.9505 70.1746 11.24 70.9796 10.722C71.7846 10.204 72.7296 9.94504 73.8146 9.94504C74.8926 9.94504 75.7991 10.2075 76.5341 10.7325C77.2691 11.2575 77.8256 11.9715 78.2036 12.8745C78.5816 13.7775 78.7706 14.796 78.7706 15.93C78.7706 17.064 78.5781 18.0825 78.1931 18.9855C77.8151 19.8885 77.2481 20.6025 76.4921 21.1275C75.7361 21.6525 74.7946 21.915 73.6676 21.915ZM74.1296 19.374C74.7666 19.374 75.2741 19.2305 75.6521 18.9435C76.0371 18.6565 76.3136 18.254 76.4816 17.736C76.6496 17.218 76.7336 16.616 76.7336 15.93C76.7336 15.244 76.6496 14.642 76.4816 14.124C76.3136 13.606 76.0441 13.2035 75.6731 12.9165C75.3091 12.6295 74.8296 12.486 74.2346 12.486C73.5976 12.486 73.0726 12.6435 72.6596 12.9585C72.2536 13.2665 71.9526 13.683 71.7566 14.208C71.5606 14.726 71.4626 15.3 71.4626 15.93C71.4626 16.567 71.5571 17.148 71.7461 17.673C71.9351 18.191 72.2256 18.604 72.6176 18.912C73.0096 19.22 73.5136 19.374 74.1296 19.374ZM76.7336 21.6V13.83H76.3766V6.48004H79.2536V21.6H76.7336Z" fill="white"/>
<path d="M83.1386 21.6V10.302C83.1386 10.015 83.1456 9.68954 83.1596 9.32554C83.1736 8.96154 83.2296 8.59404 83.3276 8.22304C83.4326 7.85204 83.6216 7.51604 83.8946 7.21504C84.2446 6.82304 84.6226 6.55704 85.0286 6.41704C85.4416 6.27004 85.8406 6.19304 86.2256 6.18604C86.6106 6.17204 86.9396 6.16504 87.2126 6.16504H88.6196V8.47504H87.3176C86.8696 8.47504 86.5371 8.59054 86.3201 8.82154C86.1031 9.04554 85.9946 9.31504 85.9946 9.63004V21.6H83.1386ZM81.3536 12.465V10.26H88.6196V12.465H81.3536Z" fill="white"/>
<path d="M94.987 21.915C93.846 21.915 92.845 21.6595 91.984 21.1485C91.123 20.6375 90.451 19.934 89.968 19.038C89.492 18.135 89.254 17.099 89.254 15.93C89.254 14.747 89.499 13.7075 89.989 12.8115C90.479 11.9085 91.1545 11.205 92.0155 10.701C92.8765 10.197 93.867 9.94504 94.987 9.94504C96.128 9.94504 97.129 10.2005 97.99 10.7115C98.858 11.2225 99.5335 11.9295 100.017 12.8325C100.5 13.7285 100.741 14.761 100.741 15.93C100.741 17.106 100.496 18.1455 100.006 19.0485C99.523 19.9445 98.8475 20.648 97.9795 21.159C97.1185 21.663 96.121 21.915 94.987 21.915ZM94.987 19.248C95.904 19.248 96.5865 18.94 97.0345 18.324C97.4895 17.701 97.717 16.903 97.717 15.93C97.717 14.922 97.486 14.117 97.024 13.515C96.569 12.913 95.89 12.612 94.987 12.612C94.364 12.612 93.853 12.752 93.454 13.032C93.055 13.312 92.7575 13.7005 92.5615 14.1975C92.3725 14.6945 92.278 15.272 92.278 15.93C92.278 16.945 92.5055 17.7535 92.9605 18.3555C93.4225 18.9505 94.098 19.248 94.987 19.248Z" fill="white"/>
<path d="M103.05 21.6V10.26H105.57V13.032L105.297 12.675C105.444 12.283 105.64 11.926 105.885 11.604C106.13 11.282 106.431 11.016 106.788 10.806C107.061 10.638 107.359 10.5085 107.681 10.4175C108.003 10.3195 108.335 10.26 108.678 10.239C109.021 10.211 109.364 10.218 109.707 10.26V12.927C109.392 12.829 109.025 12.7975 108.605 12.8325C108.192 12.8605 107.817 12.955 107.481 13.116C107.145 13.27 106.862 13.4765 106.631 13.7355C106.4 13.9875 106.225 14.2885 106.106 14.6385C105.987 14.9815 105.927 15.37 105.927 15.804V21.6H103.05Z" fill="white"/>
<path d="M115.725 21.915C114.297 21.915 113.142 21.593 112.26 20.949C111.385 20.298 110.853 19.381 110.664 18.198L113.583 17.757C113.702 18.289 113.965 18.7055 114.371 19.0065C114.784 19.3075 115.305 19.458 115.935 19.458C116.453 19.458 116.852 19.36 117.132 19.164C117.412 18.961 117.552 18.681 117.552 18.324C117.552 18.1 117.496 17.9215 117.384 17.7885C117.272 17.6485 117.02 17.512 116.628 17.379C116.243 17.246 115.641 17.071 114.822 16.854C113.898 16.616 113.16 16.35 112.607 16.056C112.054 15.762 111.655 15.412 111.41 15.006C111.165 14.593 111.042 14.096 111.042 13.515C111.042 12.787 111.228 12.157 111.599 11.625C111.97 11.086 112.491 10.673 113.163 10.386C113.842 10.092 114.64 9.94504 115.557 9.94504C116.446 9.94504 117.234 10.0815 117.92 10.3545C118.606 10.6275 119.159 11.016 119.579 11.52C120.006 12.024 120.268 12.619 120.366 13.305L117.447 13.83C117.398 13.41 117.216 13.0775 116.901 12.8325C116.586 12.5875 116.159 12.444 115.62 12.402C115.095 12.367 114.672 12.437 114.35 12.612C114.035 12.787 113.877 13.039 113.877 13.368C113.877 13.564 113.944 13.7285 114.077 13.8615C114.217 13.9945 114.5 14.131 114.927 14.271C115.361 14.411 116.019 14.593 116.901 14.817C117.762 15.041 118.452 15.3035 118.97 15.6045C119.495 15.8985 119.876 16.2555 120.114 16.6755C120.352 17.0885 120.471 17.589 120.471 18.177C120.471 19.339 120.051 20.2525 119.211 20.9175C118.371 21.5825 117.209 21.915 115.725 21.915Z" fill="white"/>
<path d="M122.989 8.68504V6.16504H125.845V8.68504H122.989ZM122.989 21.6V10.26H125.845V21.6H122.989Z" fill="white"/>
<path d="M133.843 26.955C133.199 26.955 132.587 26.85 132.006 26.64C131.425 26.437 130.903 26.15 130.441 25.779C129.986 25.415 129.615 24.988 129.328 24.498L131.974 23.217C132.156 23.553 132.415 23.8085 132.751 23.9835C133.094 24.1585 133.465 24.246 133.864 24.246C134.291 24.246 134.694 24.1725 135.072 24.0255C135.45 23.8855 135.751 23.672 135.975 23.385C136.206 23.105 136.314 22.755 136.3 22.335V19.038H136.657V10.26H139.156V22.377C139.156 22.657 139.142 22.9195 139.114 23.1645C139.093 23.4165 139.051 23.665 138.988 23.91C138.806 24.603 138.467 25.1735 137.97 25.6215C137.48 26.0695 136.878 26.402 136.164 26.619C135.45 26.843 134.676 26.955 133.843 26.955ZM133.591 21.915C132.548 21.915 131.635 21.6525 130.851 21.1275C130.067 20.6025 129.454 19.8885 129.013 18.9855C128.579 18.0825 128.362 17.064 128.362 15.93C128.362 14.775 128.583 13.7495 129.024 12.8535C129.472 11.9505 130.098 11.24 130.903 10.722C131.708 10.204 132.653 9.94504 133.738 9.94504C134.816 9.94504 135.723 10.2075 136.458 10.7325C137.193 11.2575 137.749 11.9715 138.127 12.8745C138.505 13.7775 138.694 14.796 138.694 15.93C138.694 17.064 138.502 18.0825 138.117 18.9855C137.739 19.8885 137.172 20.6025 136.416 21.1275C135.66 21.6525 134.718 21.915 133.591 21.915ZM134.053 19.374C134.69 19.374 135.198 19.2305 135.576 18.9435C135.961 18.6565 136.237 18.254 136.405 17.736C136.573 17.218 136.657 16.616 136.657 15.93C136.657 15.244 136.573 14.642 136.405 14.124C136.237 13.606 135.968 13.2035 135.597 12.9165C135.233 12.6295 134.753 12.486 134.158 12.486C133.521 12.486 132.996 12.6435 132.583 12.9585C132.177 13.2665 131.876 13.683 131.68 14.208C131.484 14.726 131.386 15.3 131.386 15.93C131.386 16.567 131.481 17.148 131.67 17.673C131.859 18.191 132.149 18.604 132.541 18.912C132.933 19.22 133.437 19.374 134.053 19.374Z" fill="white"/>
<path d="M149.825 21.6V16.245C149.825 15.986 149.811 15.657 149.783 15.258C149.755 14.852 149.667 14.446 149.52 14.04C149.373 13.634 149.132 13.2945 148.796 13.0215C148.467 12.7485 147.998 12.612 147.389 12.612C147.144 12.612 146.881 12.6505 146.601 12.7275C146.321 12.8045 146.059 12.955 145.814 13.179C145.569 13.396 145.366 13.718 145.205 14.145C145.051 14.572 144.974 15.139 144.974 15.846L143.336 15.069C143.336 14.173 143.518 13.333 143.882 12.549C144.246 11.765 144.792 11.1315 145.52 10.6485C146.255 10.1655 147.179 9.92404 148.292 9.92404C149.181 9.92404 149.905 10.0745 150.465 10.3755C151.025 10.6765 151.459 11.058 151.767 11.52C152.082 11.982 152.306 12.465 152.439 12.969C152.572 13.466 152.653 13.921 152.681 14.334C152.709 14.747 152.723 15.048 152.723 15.237V21.6H149.825ZM142.076 21.6V10.26H144.617V14.019H144.974V21.6H142.076Z" fill="white"/>
<defs>
<clipPath id="clip0_3376_25290">
<rect width="24" height="24" fill="white" transform="translate(0 3)"/>
</clipPath>
</defs>
</svg>
